<svg width="48" height="48" viewBox="0 0 48 48" fill="none" xmlns="http://www.w3.org/2000/svg">
<rect width="48" height="48" rx="24" fill="#DEE8F6"/>
<path d="M23.5 33.25C24.125 33.25 25.0625 32.7031 25.8828 31.0234C26.2734 30.2422 26.625 29.3047 26.8594 28.25H20.1406C20.3359 29.3047 20.6875 30.2422 21.0781 31.0234C21.8984 32.7031 22.8359 33.25 23.5 33.25ZM19.9062 27H27.0547C27.1719 26.2188 27.25 25.3984 27.25 24.5C27.25 23.6406 27.1719 22.8203 27.0547 22H19.9062C19.7891 22.8203 19.75 23.6406 19.75 24.5C19.75 25.3984 19.7891 26.2188 19.9062 27ZM20.1406 20.75H26.8594C26.625 19.6953 26.2734 18.7969 25.8828 18.0156C25.0625 16.3359 24.125 15.75 23.5 15.75C22.8359 15.75 21.8984 16.3359 21.0781 18.0156C20.6875 18.7969 20.3359 19.6953 20.1406 20.75ZM28.3438 22C28.4219 22.8203 28.5 23.6406 28.5 24.5C28.5 25.3984 28.4219 26.2188 28.3438 27H31.8594C32.0938 26.2188 32.25 25.3984 32.25 24.5C32.25 23.6406 32.0938 22.8203 31.8594 22H28.3438ZM31.3906 20.75C30.375 18.6406 28.5391 17 26.2734 16.2188C27.0938 17.3125 27.7578 18.9141 28.1094 20.75H31.3906ZM18.8516 20.75C19.2422 18.9141 19.8672 17.3125 20.6875 16.2188C18.4219 17 16.5859 18.6406 15.5703 20.75H18.8516ZM15.1016 22C14.8672 22.8203 14.75 23.6406 14.75 24.5C14.75 25.3984 14.8672 26.2188 15.1016 27H18.6562C18.5391 26.2188 18.5 25.3984 18.5 24.5C18.5 23.6406 18.5391 22.8203 18.6562 22H15.1016ZM26.2734 32.8203C28.5391 32.0391 30.375 30.3984 31.3906 28.25H28.1094C27.7578 30.125 27.0938 31.6875 26.2734 32.8203ZM20.6875 32.8203C19.8672 31.6875 19.2422 30.125 18.8516 28.25H15.5703C16.5859 30.3984 18.4219 32.0391 20.6875 32.8203ZM23.5 34.5C19.9062 34.5 16.625 32.625 14.8281 29.5C13.0312 26.4141 13.0312 22.625 14.8281 19.5C16.625 16.4141 19.9062 14.5 23.5 14.5C27.0547 14.5 30.3359 16.4141 32.1328 19.5C33.9297 22.625 33.9297 26.4141 32.1328 29.5C30.3359 32.625 27.0547 34.5 23.5 34.5Z" fill="#2464C6"/>
</svg>
